<svg xmlns="http://www.w3.org/2000/svg" viewBox="0 0 25 31.25" x="0px" y="0px"><title>grup</title><g data-name="Layer 11"><path d="M18.62,12.4a3.27,3.27,0,0,0,.72-2.06,3.32,3.32,0,0,0-5.76-2.27,3.28,3.28,0,0,0-1.94.23,3.34,3.34,0,0,0-6,2,3.27,3.27,0,0,0,.72,2.06A7,7,0,0,0,2,18.88V20.5a.5.5,0,0,0,.5.5H6v.5a.5.5,0,0,0,.5.5h13a.5.5,0,0,0,.5-.5V21h2.5a.5.5,0,0,0,.5-.5V18.88A7,7,0,0,0,18.62,12.4ZM16,8a2.34,2.34,0,0,1,2.34,2.34,2.3,2.3,0,0,1-.94,1.87,2,2,0,0,1-.39.24l-.12.06a2.4,2.4,0,0,1-.38.12l-.07,0c-.12,0-.25,0-.38,0l0-.09a3.45,3.45,0,0,0,.14-.42c0-.07,0-.13,0-.19a3.39,3.39,0,0,0,.07-.64,4.38,4.38,0,0,0,0-.51l0-.15-.09-.34-.06-.17c0-.1-.08-.2-.13-.3l-.08-.15a3.28,3.28,0,0,0-.2-.31.36.36,0,0,0-.07-.1A2.74,2.74,0,0,0,15.32,9l-.11-.1a2.88,2.88,0,0,0-.27-.22l-.16-.1a1.1,1.1,0,0,0-.14-.09A2.35,2.35,0,0,1,16,8ZM11.75,9.37a2.26,2.26,0,0,1,1.88-.28,2.33,2.33,0,0,1,1.71,2.25,2.25,2.25,0,0,1-.5,1.44,2.05,2.05,0,0,1-.42.41l0,0a2.34,2.34,0,0,1-.47.28,4.42,4.42,0,0,1-.61.18,3.06,3.06,0,0,1-.66,0h0l-.16,0-.05,0a7.62,7.62,0,0,1-.81-.39l0,0a2.14,2.14,0,0,1-.62-.71,2.32,2.32,0,0,1,.79-3.11ZM9,8a2.32,2.32,0,0,1,1.79.84L10.66,9l-.2.22a2.63,2.63,0,0,0-.28.4,1.28,1.28,0,0,0-.15.25,2.53,2.53,0,0,0-.19.48,2.25,2.25,0,0,0-.08.24,3.33,3.33,0,0,0-.1.78,3.22,3.22,0,0,0,.1.75,1.46,1.46,0,0,0,.05.2,1.39,1.39,0,0,0,.06.19,1.63,1.63,0,0,1-.19.09l-.17,0a2,2,0,0,1-.49.06H8.84a2.34,2.34,0,0,1-.46-.09,1.67,1.67,0,0,1-.68-.32l-.11-.06a2.29,2.29,0,0,1-.93-1.86A2.34,2.34,0,0,1,9,8ZM6.76,16.74a6.39,6.39,0,0,0-.26.6c0,.13-.11.26-.15.39a6,6,0,0,0-.18.7c0,.12-.06.23-.08.35A6.71,6.71,0,0,0,6,19.88V20H3V18.88a6,6,0,0,1,4.19-5.73l.08,0a3.36,3.36,0,0,0,.6.3h0a3.44,3.44,0,0,0,.72.17h.08a3.16,3.16,0,0,0,.32,0l.36,0h.05a2.89,2.89,0,0,0,.66-.16h0l-.28.16a5.32,5.32,0,0,0-.66.37c-.12.08-.22.17-.33.25s-.35.27-.52.42L8,15a4.91,4.91,0,0,0-.43.48c-.09.11-.18.22-.26.34s-.24.36-.35.54ZM19,20.5V21H7V19.88a6.37,6.37,0,0,1,.08-1c0-.11.06-.21.08-.31A6.45,6.45,0,0,1,7.32,18c0-.12.1-.23.14-.34s.15-.37.24-.54.14-.22.2-.33a4.76,4.76,0,0,1,.31-.47c.08-.11.17-.2.26-.31a4.61,4.61,0,0,1,.37-.4,4,4,0,0,1,.31-.27A4.46,4.46,0,0,1,9.57,15l.36-.22c.16-.09.31-.19.47-.27l.41-.16a3.25,3.25,0,0,1,.4-.15,2.19,2.19,0,0,0,.3.16l.16.08a1.92,1.92,0,0,0,.42.16l.09,0,.11,0,.22,0,.18,0h.57l.31,0a3.53,3.53,0,0,0,.72-.22,1.55,1.55,0,0,0,.22-.12,1.47,1.47,0,0,0,.28-.14l.39.14c.14.06.29.11.43.18a4.91,4.91,0,0,1,.44.25l.39.24a3.89,3.89,0,0,1,.39.32l.34.28c.12.12.23.26.34.39s.2.21.29.33.19.29.28.44a2.67,2.67,0,0,1,.22.36,4.67,4.67,0,0,1,.23.51c0,.12.11.24.15.36s.11.41.16.61.06.22.08.33a6.37,6.37,0,0,1,.08,1Zm3-.5H20v-.12a6.47,6.47,0,0,0-.09-1.08c0-.11-.05-.22-.07-.33s-.11-.47-.18-.7-.08-.25-.13-.37-.17-.42-.27-.62l-.18-.34c-.12-.21-.25-.41-.38-.6s-.13-.19-.2-.27a6.4,6.4,0,0,0-.65-.73l-.05-.05a6.48,6.48,0,0,0-.81-.66L16.7,14a4.68,4.68,0,0,0-.44-.27l.1,0a3.2,3.2,0,0,0,1.37-.47l.08,0A6,6,0,0,1,22,18.88Z"/></g><text x="0" y="40" fill="#000000" font-size="5px" font-weight="bold" font-family="'Helvetica Neue', Helvetica, Arial-Unicode, Arial, Sans-serif">Created by Kholed fadhlulloh</text><text x="0" y="45" fill="#000000" font-size="5px" font-weight="bold" font-family="'Helvetica Neue', Helvetica, Arial-Unicode, Arial, Sans-serif">from the Noun Project</text></svg>